<svg xmlns="http://www.w3.org/2000/svg" width="47.174" height="20.046" viewBox="0 0 47.174 20.046">
  <g id="Logo_Nav" data-name="Logo Nav" transform="translate(0 0.25)">
    <path id="Path_11229" data-name="Path 11229" d="M3390.1,1828.822a4.209,4.209,0,0,1-3.548-1.364,6.963,6.963,0,0,1-1.134-4.453V1812.7h-3.353v-3.36h6.82v13.089a3.992,3.992,0,0,0,.514,2.317,1.993,1.993,0,0,0,1.717.7h2.9v3.38Z" transform="translate(-3368.18 -1809.31)" fill="#fff"/>
    <path id="Контур_11251" data-name="Контур 11251" d="M3557.5,1811.675v0h1.671V1809H3557a2.881,2.881,0,0,0-2.839,2.839h0v4.769h0c0,.014,0,.028,0,.042a.793.793,0,0,1-.668.782H3553v2.678h.495a.793.793,0,0,1,.668.783c0,.014,0,.028,0,.042h0v4.769h0a2.88,2.88,0,0,0,2.839,2.839h2.172v-2.673H3557.5v0a.709.709,0,0,1-.668-.708c0-.014,0-.028,0-.042h0v-4.511a1.921,1.921,0,0,1,0-3.675v-4.51h0c0-.014,0-.028,0-.042A.709.709,0,0,1,3557.5,1811.675Z" transform="translate(-3525.692 -1809)" fill="#fff" stroke="#fff" stroke-width="0.5"/>
    <path id="Контур_11252" data-name="Контур 11252" d="M3614.519,1865.041l6.566-12.041h-3.6l-6.508,12.041Z" transform="translate(-3578.887 -1849.371)" fill="#2068f8"/>
    <path id="Контур_11253" data-name="Контур 11253" d="M3717.671,1811.675v0H3716V1809h2.172a2.881,2.881,0,0,1,2.839,2.839h0v4.769h0c0,.014,0,.028,0,.042a.793.793,0,0,0,.668.782h.495v2.678h-.495a.793.793,0,0,0-.668.783c0,.014,0,.028,0,.042h0v4.769h0a2.881,2.881,0,0,1-2.839,2.839H3716v-2.673h1.671v0a.709.709,0,0,0,.668-.708c0-.014,0-.028,0-.042h0v-4.511a1.921,1.921,0,0,0,0-3.675v-4.51h0c0-.014,0-.028,0-.042A.709.709,0,0,0,3717.671,1811.675Z" transform="translate(-3675.25 -1809)" fill="#fff" stroke="#fff" stroke-width="0.5"/>
    <path id="Контур_11254" data-name="Контур 11254" d="M3216.8,1815.283h-4.844v-1.493q0-.829.743-.83h4.1v-3.318h-5.532a2.658,2.658,0,0,0-1.981.816,2.755,2.755,0,0,0-.8,2v2.821h-2.942v3.318h2.942V1829h3.467v-10.4h4.844Z" transform="translate(-3205.547 -1809.588)" fill="#fff"/>
  </g>
</svg>

