<svg id="Misc_sign-out" data-name="Misc/sign-out" xmlns="http://www.w3.org/2000/svg" width="18.294" height="18.294" viewBox="0 0 18.294 18.294">
    <path id="Background" d="M0,0H18.294V18.294H0Z" fill="none"/>
    <path id="Union" d="M6.129,15.4h0L.412,13.435,0,12.908V1.143l.023-.015V.572L.595,0H10.885l.571.572v2.1L10.313,3.807V1.143H2.328L6.483,2.573l.378.526v9.479h3.452V9.935l1.143,1.144v2.069l-.571.571H6.861v1.143L6.13,15.4ZM1.143,1.967V12.509L5.717,14.04V3.5ZM12.085,10.1h0l-.8-.8,1.886-1.886H7.489V6.266h5.637L11.3,4.436l.812-.8,2.824,2.813v.812L12.086,10.1Z" transform="translate(2 2)" fill="#777b81"/>
</svg>

