<svg xmlns="http://www.w3.org/2000/svg" width="18.992" height="18.965" viewBox="0 0 18.992 18.965">
    <g id="Сгруппировать_22635" data-name="Сгруппировать 22635" transform="translate(-79.604 -985.519)">
        <path id="Объединение_566" data-name="Объединение 566" d="M6410.492,21697.965H6405.5l-.5-.5v-4.977l.5-.5h5l.5.5v4.977l-.5.5Zm-4.492-1h4v-3.977h-4Zm-12.5,1-.5-.5v-4.977l.5-.5h4.994l.5.5v4.977l-.5.5Zm.5-1h3.992v-3.977H6394Zm5.5-11.006-.5-.5v-4.971l.5-.5h4.994l.5.5v4.971l-.5.5Zm.5-.992H6404v-3.98H6400Z" transform="translate(-6312.897 -20693.98)" fill="#777b81" stroke="rgba(0,0,0,0)" stroke-miterlimit="10" stroke-width="1"/>
        <path id="Path" d="M.5,0h2V1H1V13H2.5v1H.5L0,13.5V.5Z" transform="translate(96.098 993.5) rotate(90)" fill="#777b81"/>
    </g>
</svg>
