<svg xmlns="http://www.w3.org/2000/svg" width="14.995" height="14.969" viewBox="0 0 14.995 14.969">
    <path id="Объединение_564" data-name="Объединение 564" d="M6403.5,21697.965l-.5-.5v-4.977l.5-.5h4.993l.5.5v4.977l-.5.5Zm.5-1h3.991v-3.977H6404Zm-8.5,1-.5-.5v-4.977l.5-.5h4.994l.5.5v4.977l-.5.5Zm.5-1h3.992v-3.977H6396Zm7.5-7-.5-.5v-4.977l.5-.5h4.993l.5.5v4.977l-.5.5Zm.5-1h3.991v-3.975H6404Zm-8.5,1-.5-.5v-4.977l.5-.5h4.994l.5.5v4.977l-.5.5Zm.5-1h3.992v-3.975H6396Z" transform="translate(-6394.5 -21683.496)" fill="#777b81" stroke="rgba(0,0,0,0)" stroke-miterlimit="10" stroke-width="1"/>
</svg>

