<svg xmlns="http://www.w3.org/2000/svg" width="12.625" height="13.501" viewBox="0 0 12.625 13.501">
    <path id="Vector" d="M1.147,17H0v-.564a5.979,5.979,0,0,1,1.112-3.489,6.448,6.448,0,0,1,2.923-2.276,3.9,3.9,0,0,1-.726-.633,4.081,4.081,0,0,1-.548-.773,3.8,3.8,0,0,1-.34-.879,4.286,4.286,0,0,1-.126-.949,3.77,3.77,0,0,1,.314-1.53A4.031,4.031,0,0,1,3.47,4.66,4.075,4.075,0,0,1,6.312,3.5a3.962,3.962,0,0,1,1.561.308,4.061,4.061,0,0,1,1.273.844A4.013,4.013,0,0,1,10.007,5.9a3.906,3.906,0,0,1,.322,1.539,3.791,3.791,0,0,1-.117.94,3.7,3.7,0,0,1-.349.879,4.586,4.586,0,0,1-.547.782,3.591,3.591,0,0,1-.727.633,6.488,6.488,0,0,1,1.65.931,6.118,6.118,0,0,1,1.274,1.345,6.391,6.391,0,0,1,.816,1.643,6.128,6.128,0,0,1,.3,1.846V17H11.477v-.564a4.881,4.881,0,0,0-.4-1.968A5.006,5.006,0,0,0,9.963,12.86a5.36,5.36,0,0,0-1.641-1.081,5.249,5.249,0,0,0-2.009-.4A5.159,5.159,0,0,0,2.663,12.86a5.208,5.208,0,0,0-1.1,1.608,4.946,4.946,0,0,0-.413,1.968V17ZM6.312,4.625a2.835,2.835,0,0,0-1.112.22,2.924,2.924,0,0,0-.914.606,2.847,2.847,0,0,0-.619.9,2.761,2.761,0,0,0,0,2.18,2.928,2.928,0,0,0,.609.9,2.784,2.784,0,0,0,.915.606,2.9,2.9,0,0,0,1.12.22,2.835,2.835,0,0,0,1.112-.22,2.877,2.877,0,0,0,.905-.6,2.911,2.911,0,0,0,.619-.9,2.656,2.656,0,0,0,.234-1.1,2.7,2.7,0,0,0-.224-1.09,2.751,2.751,0,0,0-.619-.888,3.123,3.123,0,0,0-.915-.606A2.743,2.743,0,0,0,6.312,4.625Z" transform="translate(0 -3.5)" fill="#777b81"/>
</svg>
